<?xml version="1.0" encoding="UTF-8" standalone="no"?>
<!DOCTYPE svg PUBLIC "-//W3C//DTD SVG 1.1//EN"
 "http://www.w3.org/Graphics/SVG/1.1/DTD/svg11.dtd">
<!-- Generated by graphviz version 2.38.0 (20140413.2041)
 -->
<!-- Title: pgraph Pages: 1 -->
<svg width="2381pt" height="94pt"
 viewBox="0.00 0.00 2381.00 94.02" xmlns="http://www.w3.org/2000/svg" xmlns:xlink="http://www.w3.org/1999/xlink">
<g id="graph0" class="graph" transform="scale(1 1) rotate(0) translate(4 90.0224)">
<title>pgraph</title>
<polygon fill="white" stroke="none" points="-4,4 -4,-90.0224 2377,-90.0224 2377,4 -4,4"/>
<!-- ChannelSelector -->
<g id="node1" class="node"><title>ChannelSelector</title>
<polygon fill="none" stroke="black" points="1549,-42.5224 1549,-78.5224 1701,-78.5224 1701,-42.5224 1549,-42.5224"/>
<text text-anchor="middle" x="1560.5" y="-56.8224" font-family="Times,serif" font-size="14.00">0</text>
<polyline fill="none" stroke="black" points="1572,-42.5224 1572,-78.5224 "/>
<text text-anchor="middle" x="1625" y="-56.8224" font-family="Times,serif" font-size="14.00">ChannelSelector</text>
<polyline fill="none" stroke="black" points="1678,-42.5224 1678,-78.5224 "/>
<text text-anchor="middle" x="1689.5" y="-56.8224" font-family="Times,serif" font-size="14.00">0</text>
</g>
<!-- L1SPFilter -->
<g id="node7" class="node"><title>L1SPFilter</title>
<polygon fill="none" stroke="black" points="1737,-40.5224 1737,-76.5224 1859,-76.5224 1859,-40.5224 1737,-40.5224"/>
<text text-anchor="middle" x="1748.5" y="-54.8224" font-family="Times,serif" font-size="14.00">0</text>
<polyline fill="none" stroke="black" points="1760,-40.5224 1760,-76.5224 "/>
<text text-anchor="middle" x="1798" y="-54.8224" font-family="Times,serif" font-size="14.00">L1SPFilter</text>
<polyline fill="none" stroke="black" points="1836,-40.5224 1836,-76.5224 "/>
<text text-anchor="middle" x="1847.5" y="-54.8224" font-family="Times,serif" font-size="14.00">0</text>
</g>
<!-- ChannelSelector&#45;&gt;L1SPFilter -->
<g id="edge11" class="edge"><title>ChannelSelector:out0&#45;&gt;L1SPFilter:in0</title>
<path fill="none" stroke="black" d="M1701,-60.5224C1713.02,-60.5224 1718.25,-59.3974 1726.87,-58.8349"/>
<polygon fill="black" stroke="black" points="1727.11,-62.3291 1737,-58.5224 1726.9,-55.3324 1727.11,-62.3291"/>
</g>
<!-- DumpFrames -->
<g id="node2" class="node"><title>DumpFrames</title>
<polygon fill="none" stroke="black" points="2258,-16.5224 2258,-52.5224 2373,-52.5224 2373,-16.5224 2258,-16.5224"/>
<text text-anchor="middle" x="2269.5" y="-30.8224" font-family="Times,serif" font-size="14.00">0</text>
<polyline fill="none" stroke="black" points="2281,-16.5224 2281,-52.5224 "/>
<text text-anchor="middle" x="2327" y="-30.8224" font-family="Times,serif" font-size="14.00">DumpFrames</text>
</g>
<!-- FrameMerger_l1merge -->
<g id="node3" class="node"><title>FrameMerger_l1merge</title>
<polygon fill="none" stroke="black" points="1895,-11.5224 1895,-57.5224 2033,-57.5224 2033,-11.5224 1895,-11.5224"/>
<text text-anchor="middle" x="1906.5" y="-42.3224" font-family="Times,serif" font-size="14.00">0</text>
<polyline fill="none" stroke="black" points="1895,-34.5224 1918,-34.5224 "/>
<text text-anchor="middle" x="1906.5" y="-19.3224" font-family="Times,serif" font-size="14.00">1</text>
<polyline fill="none" stroke="black" points="1918,-11.5224 1918,-57.5224 "/>
<text text-anchor="middle" x="1964" y="-38.3224" font-family="Times,serif" font-size="14.00">FrameMerger</text>
<text text-anchor="middle" x="1964" y="-23.3224" font-family="Times,serif" font-size="14.00">l1merge</text>
<polyline fill="none" stroke="black" points="2010,-11.5224 2010,-57.5224 "/>
<text text-anchor="middle" x="2021.5" y="-30.8224" font-family="Times,serif" font-size="14.00">0</text>
</g>
<!-- wclsFrameSaver_spsaver -->
<g id="node12" class="node"><title>wclsFrameSaver_spsaver</title>
<polygon fill="none" stroke="black" points="2069,-15.5224 2069,-53.5224 2222,-53.5224 2222,-15.5224 2069,-15.5224"/>
<text text-anchor="middle" x="2080.5" y="-30.8224" font-family="Times,serif" font-size="14.00">0</text>
<polyline fill="none" stroke="black" points="2092,-15.5224 2092,-53.5224 "/>
<text text-anchor="middle" x="2145.5" y="-38.3224" font-family="Times,serif" font-size="14.00">wclsFrameSaver</text>
<text text-anchor="middle" x="2145.5" y="-23.3224" font-family="Times,serif" font-size="14.00">spsaver</text>
<polyline fill="none" stroke="black" points="2199,-15.5224 2199,-53.5224 "/>
<text text-anchor="middle" x="2210.5" y="-30.8224" font-family="Times,serif" font-size="14.00">0</text>
</g>
<!-- FrameMerger_l1merge&#45;&gt;wclsFrameSaver_spsaver -->
<g id="edge13" class="edge"><title>FrameMerger_l1merge:out0&#45;&gt;wclsFrameSaver_spsaver:in0</title>
<path fill="none" stroke="black" d="M2033,-34.5224C2045,-34.5224 2050.25,-34.5224 2058.88,-34.5224"/>
<polygon fill="black" stroke="black" points="2059,-38.0225 2069,-34.5224 2059,-31.0225 2059,-38.0225"/>
</g>
<!-- FrameMerger_rawsigmerge -->
<g id="node4" class="node"><title>FrameMerger_rawsigmerge</title>
<polygon fill="none" stroke="black" points="1375,-39.5224 1375,-85.5224 1513,-85.5224 1513,-39.5224 1375,-39.5224"/>
<text text-anchor="middle" x="1386.5" y="-70.3224" font-family="Times,serif" font-size="14.00">0</text>
<polyline fill="none" stroke="black" points="1375,-62.5224 1398,-62.5224 "/>
<text text-anchor="middle" x="1386.5" y="-47.3224" font-family="Times,serif" font-size="14.00">1</text>
<polyline fill="none" stroke="black" points="1398,-39.5224 1398,-85.5224 "/>
<text text-anchor="middle" x="1444" y="-66.3224" font-family="Times,serif" font-size="14.00">FrameMerger</text>
<text text-anchor="middle" x="1444" y="-51.3224" font-family="Times,serif" font-size="14.00">rawsigmerge</text>
<polyline fill="none" stroke="black" points="1490,-39.5224 1490,-85.5224 "/>
<text text-anchor="middle" x="1501.5" y="-58.8224" font-family="Times,serif" font-size="14.00">0</text>
</g>
<!-- FrameMerger_rawsigmerge&#45;&gt;ChannelSelector -->
<g id="edge10" class="edge"><title>FrameMerger_rawsigmerge:out0&#45;&gt;ChannelSelector:in0</title>
<path fill="none" stroke="black" d="M1513,-62.5224C1525.02,-62.5224 1530.25,-61.3974 1538.87,-60.8349"/>
<polygon fill="black" stroke="black" points="1539.11,-64.3291 1549,-60.5224 1538.9,-57.3324 1539.11,-64.3291"/>
</g>
<!-- FrameSplitter_rawsplitter -->
<g id="node5" class="node"><title>FrameSplitter_rawsplitter</title>
<polygon fill="none" stroke="black" points="835,-10.5224 835,-56.5224 973,-56.5224 973,-10.5224 835,-10.5224"/>
<text text-anchor="middle" x="846.5" y="-29.8224" font-family="Times,serif" font-size="14.00">0</text>
<polyline fill="none" stroke="black" points="858,-10.5224 858,-56.5224 "/>
<text text-anchor="middle" x="904" y="-37.3224" font-family="Times,serif" font-size="14.00">FrameSplitter</text>
<text text-anchor="middle" x="904" y="-22.3224" font-family="Times,serif" font-size="14.00">rawsplitter</text>
<polyline fill="none" stroke="black" points="950,-10.5224 950,-56.5224 "/>
<text text-anchor="middle" x="961.5" y="-41.3224" font-family="Times,serif" font-size="14.00">0</text>
<polyline fill="none" stroke="black" points="950,-33.5224 973,-33.5224 "/>
<text text-anchor="middle" x="961.5" y="-18.3224" font-family="Times,serif" font-size="14.00">1</text>
</g>
<!-- FrameSplitter_rawsplitter&#45;&gt;FrameMerger_rawsigmerge -->
<g id="edge5" class="edge"><title>FrameSplitter_rawsplitter:out1&#45;&gt;FrameMerger_rawsigmerge:in1</title>
<path fill="none" stroke="black" d="M973,-21.5224C1135.71,-21.5224 1182.41,14.6543 1339,-29.5224 1352.93,-33.4515 1355.76,-44.0587 1365.17,-48.5114"/>
<polygon fill="black" stroke="black" points="1364.5,-51.9479 1375,-50.5224 1365.9,-45.0898 1364.5,-51.9479"/>
</g>
<!-- OmnibusSigProc -->
<g id="node10" class="node"><title>OmnibusSigProc</title>
<polygon fill="none" stroke="black" points="1009,-41.5224 1009,-77.5224 1165,-77.5224 1165,-41.5224 1009,-41.5224"/>
<text text-anchor="middle" x="1020.5" y="-55.8224" font-family="Times,serif" font-size="14.00">0</text>
<polyline fill="none" stroke="black" points="1032,-41.5224 1032,-77.5224 "/>
<text text-anchor="middle" x="1087" y="-55.8224" font-family="Times,serif" font-size="14.00">OmnibusSigProc</text>
<polyline fill="none" stroke="black" points="1142,-41.5224 1142,-77.5224 "/>
<text text-anchor="middle" x="1153.5" y="-55.8224" font-family="Times,serif" font-size="14.00">0</text>
</g>
<!-- FrameSplitter_rawsplitter&#45;&gt;OmnibusSigProc -->
<g id="edge6" class="edge"><title>FrameSplitter_rawsplitter:out0&#45;&gt;OmnibusSigProc:in0</title>
<path fill="none" stroke="black" d="M973,-45.5224C986.144,-45.5224 990.2,-53.7289 999.085,-57.5757"/>
<polygon fill="black" stroke="black" points="998.513,-61.0302 1009,-59.5224 999.862,-54.1613 998.513,-61.0302"/>
</g>
<!-- FrameSplitter_sigsplitter -->
<g id="node6" class="node"><title>FrameSplitter_sigsplitter</title>
<polygon fill="none" stroke="black" points="1201,-39.5224 1201,-85.5224 1339,-85.5224 1339,-39.5224 1201,-39.5224"/>
<text text-anchor="middle" x="1212.5" y="-58.8224" font-family="Times,serif" font-size="14.00">0</text>
<polyline fill="none" stroke="black" points="1224,-39.5224 1224,-85.5224 "/>
<text text-anchor="middle" x="1270" y="-66.3224" font-family="Times,serif" font-size="14.00">FrameSplitter</text>
<text text-anchor="middle" x="1270" y="-51.3224" font-family="Times,serif" font-size="14.00">sigsplitter</text>
<polyline fill="none" stroke="black" points="1316,-39.5224 1316,-85.5224 "/>
<text text-anchor="middle" x="1327.5" y="-70.3224" font-family="Times,serif" font-size="14.00">0</text>
<polyline fill="none" stroke="black" points="1316,-62.5224 1339,-62.5224 "/>
<text text-anchor="middle" x="1327.5" y="-47.3224" font-family="Times,serif" font-size="14.00">1</text>
</g>
<!-- FrameSplitter_sigsplitter&#45;&gt;FrameMerger_l1merge -->
<g id="edge8" class="edge"><title>FrameSplitter_sigsplitter:out1&#45;&gt;FrameMerger_l1merge:in1</title>
<path fill="none" stroke="black" d="M1339,-50.5224C1357.52,-50.5224 1357.15,-34.4768 1375,-29.5224 1594.45,31.3932 1661.9,-20.9413 1884.95,-22.4876"/>
<polygon fill="black" stroke="black" points="1884.99,-25.9877 1895,-22.5224 1885.01,-18.9877 1884.99,-25.9877"/>
</g>
<!-- FrameSplitter_sigsplitter&#45;&gt;FrameMerger_rawsigmerge -->
<g id="edge9" class="edge"><title>FrameSplitter_sigsplitter:out0&#45;&gt;FrameMerger_rawsigmerge:in0</title>
<path fill="none" stroke="black" d="M1339,-74.5224C1351,-74.5224 1356.25,-74.5224 1364.88,-74.5224"/>
<polygon fill="black" stroke="black" points="1365,-78.0225 1375,-74.5224 1365,-71.0225 1365,-78.0225"/>
</g>
<!-- L1SPFilter&#45;&gt;FrameMerger_l1merge -->
<g id="edge12" class="edge"><title>L1SPFilter:out0&#45;&gt;FrameMerger_l1merge:in0</title>
<path fill="none" stroke="black" d="M1859,-58.5224C1871.78,-58.5224 1876.18,-51.631 1884.9,-48.293"/>
<polygon fill="black" stroke="black" points="1885.75,-51.6966 1895,-46.5224 1884.55,-44.8018 1885.75,-51.6966"/>
</g>
<!-- OmnibusNoiseFilter -->
<g id="node8" class="node"><title>OmnibusNoiseFilter</title>
<polygon fill="none" stroke="black" points="198,-15.5224 198,-51.5224 372,-51.5224 372,-15.5224 198,-15.5224"/>
<text text-anchor="middle" x="209.5" y="-29.8224" font-family="Times,serif" font-size="14.00">0</text>
<polyline fill="none" stroke="black" points="221,-15.5224 221,-51.5224 "/>
<text text-anchor="middle" x="285" y="-29.8224" font-family="Times,serif" font-size="14.00">OmnibusNoiseFilter</text>
<polyline fill="none" stroke="black" points="349,-15.5224 349,-51.5224 "/>
<text text-anchor="middle" x="360.5" y="-29.8224" font-family="Times,serif" font-size="14.00">0</text>
</g>
<!-- OmnibusPMTNoiseFilter -->
<g id="node9" class="node"><title>OmnibusPMTNoiseFilter</title>
<polygon fill="none" stroke="black" points="408,-15.5224 408,-51.5224 610,-51.5224 610,-15.5224 408,-15.5224"/>
<text text-anchor="middle" x="419.5" y="-29.8224" font-family="Times,serif" font-size="14.00">0</text>
<polyline fill="none" stroke="black" points="431,-15.5224 431,-51.5224 "/>
<text text-anchor="middle" x="509" y="-29.8224" font-family="Times,serif" font-size="14.00">OmnibusPMTNoiseFilter</text>
<polyline fill="none" stroke="black" points="587,-15.5224 587,-51.5224 "/>
<text text-anchor="middle" x="598.5" y="-29.8224" font-family="Times,serif" font-size="14.00">0</text>
</g>
<!-- OmnibusNoiseFilter&#45;&gt;OmnibusPMTNoiseFilter -->
<g id="edge2" class="edge"><title>OmnibusNoiseFilter:out0&#45;&gt;OmnibusPMTNoiseFilter:in0</title>
<path fill="none" stroke="black" d="M372,-33.5224C384,-33.5224 389.25,-33.5224 397.875,-33.5224"/>
<polygon fill="black" stroke="black" points="398,-37.0225 408,-33.5224 398,-30.0225 398,-37.0225"/>
</g>
<!-- wclsFrameSaver_nfsaver -->
<g id="node11" class="node"><title>wclsFrameSaver_nfsaver</title>
<polygon fill="none" stroke="black" points="646,-14.5224 646,-52.5224 799,-52.5224 799,-14.5224 646,-14.5224"/>
<text text-anchor="middle" x="657.5" y="-29.8224" font-family="Times,serif" font-size="14.00">0</text>
<polyline fill="none" stroke="black" points="669,-14.5224 669,-52.5224 "/>
<text text-anchor="middle" x="722.5" y="-37.3224" font-family="Times,serif" font-size="14.00">wclsFrameSaver</text>
<text text-anchor="middle" x="722.5" y="-22.3224" font-family="Times,serif" font-size="14.00">nfsaver</text>
<polyline fill="none" stroke="black" points="776,-14.5224 776,-52.5224 "/>
<text text-anchor="middle" x="787.5" y="-29.8224" font-family="Times,serif" font-size="14.00">0</text>
</g>
<!-- OmnibusPMTNoiseFilter&#45;&gt;wclsFrameSaver_nfsaver -->
<g id="edge3" class="edge"><title>OmnibusPMTNoiseFilter:out0&#45;&gt;wclsFrameSaver_nfsaver:in0</title>
<path fill="none" stroke="black" d="M610,-33.5224C622,-33.5224 627.25,-33.5224 635.875,-33.5224"/>
<polygon fill="black" stroke="black" points="636,-37.0225 646,-33.5224 636,-30.0225 636,-37.0225"/>
</g>
<!-- OmnibusSigProc&#45;&gt;FrameSplitter_sigsplitter -->
<g id="edge7" class="edge"><title>OmnibusSigProc:out0&#45;&gt;FrameSplitter_sigsplitter:in0</title>
<path fill="none" stroke="black" d="M1165,-59.5224C1177.04,-59.5224 1182.24,-61.2099 1190.86,-62.0536"/>
<polygon fill="black" stroke="black" points="1190.85,-65.5568 1201,-62.5224 1191.17,-58.5642 1190.85,-65.5568"/>
</g>
<!-- wclsFrameSaver_nfsaver&#45;&gt;FrameSplitter_rawsplitter -->
<g id="edge4" class="edge"><title>wclsFrameSaver_nfsaver:out0&#45;&gt;FrameSplitter_rawsplitter:in0</title>
<path fill="none" stroke="black" d="M799,-33.5224C811,-33.5224 816.25,-33.5224 824.875,-33.5224"/>
<polygon fill="black" stroke="black" points="825,-37.0225 835,-33.5224 825,-30.0225 825,-37.0225"/>
</g>
<!-- wclsFrameSaver_spsaver&#45;&gt;DumpFrames -->
<g id="edge14" class="edge"><title>wclsFrameSaver_spsaver:out0&#45;&gt;DumpFrames:in0</title>
<path fill="none" stroke="black" d="M2222,-34.5224C2234,-34.5224 2239.25,-34.5224 2247.88,-34.5224"/>
<polygon fill="black" stroke="black" points="2248,-38.0225 2258,-34.5224 2248,-31.0225 2248,-38.0225"/>
</g>
<!-- wclsRawFrameSource -->
<g id="node13" class="node"><title>wclsRawFrameSource</title>
<polygon fill="none" stroke="black" points="0,-15.5224 0,-51.5224 162,-51.5224 162,-15.5224 0,-15.5224"/>
<text text-anchor="middle" x="69.5" y="-29.8224" font-family="Times,serif" font-size="14.00">wclsRawFrameSource</text>
<polyline fill="none" stroke="black" points="139,-15.5224 139,-51.5224 "/>
<text text-anchor="middle" x="150.5" y="-29.8224" font-family="Times,serif" font-size="14.00">0</text>
</g>
<!-- wclsRawFrameSource&#45;&gt;OmnibusNoiseFilter -->
<g id="edge1" class="edge"><title>wclsRawFrameSource:out0&#45;&gt;OmnibusNoiseFilter:in0</title>
<path fill="none" stroke="black" d="M162,-33.5224C174,-33.5224 179.25,-33.5224 187.875,-33.5224"/>
<polygon fill="black" stroke="black" points="188,-37.0225 198,-33.5224 188,-30.0225 188,-37.0225"/>
</g>
</g>
</svg>
